<svg width="180" height="48" viewBox="0 0 180 48" fill="none" xmlns="http://www.w3.org/2000/svg">
<path fill-rule="evenodd" clip-rule="evenodd" d="M169.404 34.3635H171.879L174.242 39.1933L171.969 44.2482H169.404L171.676 39.3056L169.404 34.3635Z" fill="#E26063"/>
<path fill-rule="evenodd" clip-rule="evenodd" d="M174.354 34.3635H176.829L179.192 39.1933L176.919 44.2482H174.354L176.627 39.3056L174.354 34.3635Z" fill="#E26063"/>
<path fill-rule="evenodd" clip-rule="evenodd" d="M0 44.2284V31.3658H2.54431L5.57827 40.4711C5.8583 41.3187 6.06159 41.9532 6.19044 42.3752C6.33647 41.9085 6.56612 41.219 6.87707 40.3125L9.96485 31.3664H12.2377V44.229H10.6068V33.4681L6.8622 44.229H5.33318L1.63035 33.2705V44.229H0V44.2284ZM21.8831 43.0607C21.2978 43.5612 20.7337 43.9111 20.1926 44.1173C19.6514 44.324 19.073 44.4259 18.4517 44.4259C17.4301 44.4259 16.6444 44.1774 16.0952 43.6775C15.5454 43.181 15.2711 42.543 15.2711 41.7677C15.2711 41.313 15.3754 40.8966 15.5815 40.5193C15.7905 40.1419 16.062 39.8429 16.397 39.6156C16.7343 39.3877 17.1105 39.2142 17.5314 39.0973C17.8424 39.0166 18.3108 38.9387 18.935 38.8608C20.2075 38.7114 21.1484 38.5281 21.7479 38.3191C21.7542 38.1038 21.7571 37.9658 21.7571 37.9085C21.7571 37.2677 21.6076 36.8159 21.3093 36.5524C20.9061 36.1962 20.306 36.0193 19.5117 36.0193C18.7678 36.0193 18.218 36.151 17.8664 36.4116C17.5114 36.6716 17.2514 37.1331 17.0807 37.798L15.5397 37.5827C15.68 36.9207 15.9096 36.3846 16.2332 35.9775C16.5556 35.5703 17.0212 35.2594 17.6305 35.0372C18.2369 34.819 18.9442 34.7085 19.7448 34.7085C20.539 34.7085 21.1873 34.8007 21.6855 34.9896C22.1814 35.1786 22.5485 35.4117 22.7816 35.6969C23.0146 35.9809 23.179 36.3405 23.2741 36.7746C23.325 37.0438 23.3514 37.5294 23.3514 38.2269V40.3228C23.3514 41.7871 23.3846 42.712 23.4499 43.1042C23.5123 43.4959 23.644 43.8705 23.8353 44.2301H22.1872C22.0291 43.8974 21.9266 43.5085 21.8825 43.0624L21.8831 43.0607ZM21.7577 39.5578C21.1839 39.7914 20.3243 39.989 19.1773 40.1505C18.5261 40.2438 18.0669 40.348 17.7971 40.4654C17.5286 40.5823 17.323 40.7529 17.1764 40.9739C17.0298 41.1984 16.9553 41.4475 16.9553 41.7224C16.9553 42.1387 17.1139 42.4892 17.4335 42.7675C17.7525 43.0458 18.2186 43.1867 18.8308 43.1867C19.4373 43.1867 19.9778 43.055 20.452 42.7887C20.9244 42.5253 21.2732 42.1628 21.4942 41.7047C21.6643 41.3485 21.7479 40.8245 21.7479 40.1327L21.7571 39.5578H21.7577ZM26.8257 44.229V31.3664H28.4017V38.693L32.1291 34.9055H34.1655L30.6184 38.3701L34.524 44.2295H32.5832L29.496 39.4656L28.4022 40.5313V44.229H26.8263H26.8257ZM43.166 41.2105L44.7964 41.4258C44.5427 42.3753 44.0679 43.1151 43.375 43.6385C42.6821 44.1625 41.7985 44.4259 40.7202 44.4259C39.3641 44.4259 38.2892 44.0068 37.495 43.1684C36.7007 42.3329 36.3038 41.1561 36.3038 39.6442C36.3038 38.0809 36.7035 36.8657 37.507 36.0032C38.3104 35.138 39.3521 34.7073 40.6337 34.7073C41.8729 34.7073 42.8854 35.1294 43.6711 35.9769C44.4568 36.8244 44.8502 38.0161 44.8502 39.552C44.8502 39.6454 44.8473 39.7857 44.8416 39.9712H37.9158C37.9754 40.9923 38.2623 41.7768 38.7811 42.3191C39.2988 42.8609 39.9459 43.1334 40.7196 43.1334C41.2957 43.1334 41.7888 42.9805 42.1948 42.6747C42.6042 42.3695 42.9266 41.8816 43.1654 41.2105H43.166ZM38.0058 38.6776H43.1843C43.1156 37.893 42.9157 37.3061 42.5899 36.9144C42.0911 36.3068 41.44 36.001 40.6429 36.001C39.9202 36.001 39.3143 36.2432 38.8212 36.7288C38.3316 37.2139 38.0602 37.8632 38.0063 38.6781L38.0058 38.6776ZM55.1884 42.8185L55.4038 44.2141C54.9617 44.3068 54.5642 44.3549 54.2183 44.3549C53.648 44.3549 53.2059 44.265 52.8892 44.0823C52.576 43.8997 52.3549 43.6632 52.2266 43.3671C52.0978 43.0705 52.0354 42.4474 52.0354 41.4991V36.1275H50.8706V34.906H52.0354V32.6005L53.6119 31.651V34.9055H55.1884V36.127H53.6119V41.5878C53.6119 42.0397 53.6388 42.3306 53.6955 42.4589C53.7488 42.5877 53.8387 42.6902 53.9641 42.7675C54.0901 42.842 54.2693 42.8809 54.5024 42.8809C54.6753 42.8809 54.905 42.8597 55.189 42.8179L55.1884 42.8185ZM57.7895 44.229V31.3664H59.366V35.9952C60.0979 35.1362 61.0204 34.7079 62.1371 34.7079C62.8209 34.7079 63.4147 34.8425 63.9232 35.1151C64.4278 35.3876 64.7891 35.7616 65.0073 36.2403C65.2254 36.7197 65.3326 37.4172 65.3326 38.3271V44.229H63.7566V38.3334C63.7566 37.5466 63.5865 36.9716 63.2486 36.612C62.9085 36.2524 62.4309 36.0731 61.8095 36.0731C61.3463 36.0731 60.911 36.1928 60.5016 36.435C60.0921 36.6773 59.8029 37.0071 59.6266 37.4235C59.4536 37.8363 59.3666 38.4084 59.3666 39.1386V44.229H57.79H57.7895ZM68.7994 33.1623V31.3658H70.376V33.1623H68.7994ZM68.7994 44.229V34.9055H70.376V44.229H68.7994ZM73.8257 44.229V34.9055H75.2407V36.2289C75.921 35.2141 76.9066 34.7079 78.1939 34.7079C78.7557 34.7079 79.2694 34.8093 79.7378 35.0103C80.2074 35.2107 80.559 35.4775 80.7927 35.804C81.0258 36.1304 81.1895 36.5198 81.2823 36.9688C81.339 37.262 81.3688 37.7745 81.3688 38.5046V44.2295H79.7922V38.5648C79.7922 37.9205 79.7321 37.4389 79.6101 37.1217C79.4876 36.8044 79.2694 36.5496 78.959 36.3583C78.6481 36.1693 78.281 36.0743 77.8629 36.0743C77.1941 36.0743 76.618 36.2867 76.1312 36.7151C75.6444 37.1406 75.4022 37.9514 75.4022 39.1432V44.2301H73.8262L73.8257 44.229ZM84.5453 45.0015L86.0686 45.2168C86.131 45.6898 86.3103 46.034 86.6029 46.2527C86.994 46.5431 87.5289 46.6897 88.2069 46.6897C88.9353 46.6897 89.4994 46.5431 89.8968 46.2527C90.2943 45.9618 90.5628 45.5518 90.7026 45.0278C90.7839 44.7071 90.8222 44.0337 90.8165 43.0063C90.1259 43.8206 89.2692 44.2278 88.2418 44.2278C86.9642 44.2278 85.9724 43.7668 85.2738 42.8414C84.5717 41.9194 84.2229 40.8113 84.2229 39.5211C84.2229 38.6318 84.3838 37.8117 84.7034 37.0598C85.0229 36.3085 85.4891 35.7307 86.0984 35.3206C86.7077 34.9106 87.4241 34.7068 88.2481 34.7068C89.3448 34.7068 90.249 35.1557 90.9597 36.0537V34.9043H92.4114V42.9554C92.4114 44.4076 92.2648 45.4344 91.9693 46.0391C91.6767 46.6439 91.2082 47.1232 90.572 47.4731C89.9329 47.823 89.1478 47.9999 88.2155 47.9999C87.1074 47.9999 86.2146 47.7514 85.5337 47.252C84.85 46.7544 84.5207 46.0036 84.5447 45.0003L84.5453 45.0015ZM85.8361 39.4083C85.8361 40.6269 86.0778 41.5163 86.5616 42.0763C87.0484 42.6358 87.6549 42.9176 88.3833 42.9176C89.1088 42.9176 89.7153 42.6387 90.2078 42.0821C90.6968 41.5249 90.9419 40.6504 90.9419 39.4587C90.9419 38.3208 90.6882 37.4618 90.1837 36.8834C89.6792 36.3062 89.0693 36.0181 88.3592 36.0181C87.6572 36.0181 87.0633 36.3028 86.5702 36.8714C86.0806 37.4406 85.8361 38.2847 85.8361 39.4077V39.4083ZM95.2191 41.4447L96.7774 41.1927C96.8644 41.8186 97.1095 42.2979 97.5098 42.6329C97.9095 42.9657 98.4707 43.1334 99.1877 43.1334C99.9132 43.1334 100.451 42.9863 100.803 42.6902C101.152 42.3964 101.328 42.0488 101.328 41.6508C101.328 41.2946 101.17 41.0129 100.857 40.809C100.636 40.6687 100.098 40.4918 99.2438 40.2736C98.091 39.9827 97.2944 39.7313 96.8461 39.5188C96.4005 39.3035 96.0632 39.0103 95.8336 38.6329C95.604 38.2584 95.4871 37.8426 95.4871 37.3874C95.4871 36.9711 95.5828 36.5879 95.7712 36.2346C95.9619 35.8813 96.219 35.5875 96.5448 35.3544C96.7894 35.1746 97.1244 35.0217 97.5447 34.8963C97.969 34.7703 98.4197 34.7073 98.9036 34.7073C99.6321 34.7073 100.271 34.8116 100.821 35.0246C101.374 35.2342 101.78 35.5222 102.042 35.8813C102.302 36.2432 102.484 36.7254 102.582 37.3307L101.041 37.546C100.973 37.0604 100.77 36.6801 100.435 36.4081C100.101 36.1361 99.6286 36.001 99.0165 36.001C98.2966 36.001 97.7801 36.1206 97.4725 36.3606C97.1644 36.6 97.0093 36.8811 97.0093 37.2018C97.0093 37.4057 97.0728 37.5912 97.2005 37.7562C97.3288 37.9234 97.5292 38.0643 97.8041 38.1754C97.9627 38.2349 98.4226 38.3701 99.1934 38.5796C100.304 38.8757 101.081 39.1214 101.522 39.3098C101.965 39.4988 102.311 39.7765 102.562 40.1362C102.816 40.4986 102.941 40.9476 102.941 41.487C102.941 42.0105 102.789 42.5052 102.482 42.9691C102.174 43.433 101.732 43.7926 101.156 44.0468C100.576 44.3011 99.9224 44.4271 99.194 44.4271C97.9874 44.4271 97.0648 44.1757 96.4315 43.6752C95.7987 43.1724 95.3955 42.4296 95.2191 41.4452V41.4447ZM109.155 41.4447L110.714 41.1927C110.801 41.8186 111.046 42.2979 111.446 42.6329C111.846 42.9657 112.408 43.1334 113.124 43.1334C113.849 43.1334 114.387 42.9863 114.74 42.6902C115.089 42.3964 115.265 42.0488 115.265 41.6508C115.265 41.2946 115.107 41.0129 114.793 40.809C114.572 40.6687 114.034 40.4918 113.181 40.2736C112.028 39.9827 111.231 39.7313 110.783 39.5188C110.338 39.3035 110.001 39.0103 109.771 38.6329C109.541 38.2584 109.425 37.8426 109.425 37.3874C109.425 36.9711 109.52 36.5879 109.708 36.2346C109.899 35.8813 110.156 35.5875 110.482 35.3544C110.727 35.1746 111.061 35.0217 111.482 34.8963C111.906 34.7703 112.357 34.7073 112.841 34.7073C113.569 34.7073 114.208 34.8116 114.758 35.0246C115.311 35.2342 115.716 35.5222 115.979 35.8813C116.239 36.2432 116.421 36.7254 116.519 37.3307L114.978 37.546C114.91 37.0604 114.707 36.6801 114.372 36.4081C114.037 36.1361 113.566 36.001 112.953 36.001C112.234 36.001 111.717 36.1206 111.409 36.3606C111.102 36.6 110.947 36.8811 110.947 37.2018C110.947 37.4057 111.009 37.5912 111.138 37.7562C111.266 37.9234 111.467 38.0643 111.741 38.1754C111.9 38.2349 112.359 38.3701 113.13 38.5796C114.24 38.8757 115.017 39.1214 115.459 39.3098C115.9 39.4988 116.247 39.7765 116.498 40.1362C116.752 40.4986 116.877 40.9476 116.877 41.487C116.877 42.0105 116.725 42.5052 116.418 42.9691C116.11 43.433 115.668 43.7926 115.092 44.0468C114.513 44.3011 113.859 44.4271 113.13 44.4271C111.923 44.4271 111.001 44.1757 110.368 43.6752C109.734 43.1724 109.331 42.4296 109.155 41.4452L109.155 41.4447ZM119.786 33.1623V31.3658H121.363V33.1623H119.786ZM119.786 44.229V34.9055H121.363V44.229H119.786ZM124.812 44.229V34.9055H126.228V36.2226C126.517 35.7679 126.905 35.3991 127.389 35.1237C127.873 34.8453 128.422 34.7073 129.04 34.7073C129.727 34.7073 130.291 34.8511 130.73 35.1357C131.17 35.4231 131.479 35.8211 131.659 36.336C132.4 35.2491 133.358 34.7073 134.541 34.7073C135.466 34.7073 136.18 34.9616 136.676 35.4741C137.175 35.9861 137.425 36.7735 137.425 37.8363V44.229H135.848V38.3603C135.848 37.7315 135.794 37.2763 135.694 36.998C135.592 36.7197 135.406 36.498 135.135 36.3274C134.866 36.1567 134.549 36.0731 134.188 36.0731C133.531 36.0731 132.987 36.2919 132.554 36.726C132.121 37.1629 131.906 37.8604 131.906 38.819V44.2295H130.33V38.1782C130.33 37.4773 130.201 36.9504 129.944 36.6C129.688 36.2495 129.266 36.0731 128.684 36.0731C128.242 36.0731 127.833 36.1899 127.456 36.423C127.08 36.6561 126.808 36.998 126.639 37.4498C126.472 37.8988 126.387 38.5487 126.387 39.3963V44.229H124.811H124.812ZM140.782 47.8041V34.9055H142.216V36.1304C142.554 35.6568 142.936 35.3012 143.363 35.0647C143.786 34.8276 144.304 34.7085 144.909 34.7085C145.704 34.7085 146.402 34.9123 147.009 35.3224C147.615 35.7295 148.072 36.3073 148.383 37.0501C148.69 37.7957 148.846 38.61 148.846 39.4993C148.846 40.4482 148.675 41.3049 148.335 42.0683C147.994 42.8288 147.499 43.4123 146.848 43.8195C146.2 44.2238 145.516 44.4271 144.799 44.4271C144.274 44.4271 143.801 44.316 143.386 44.0944C142.968 43.8728 142.628 43.5944 142.359 43.256V47.8041H140.783H140.782ZM142.216 39.6242C142.216 40.8182 142.458 41.7024 142.938 42.2745C143.422 42.846 144.008 43.1334 144.694 43.1334C145.393 43.1334 145.99 42.8368 146.485 42.2435C146.984 41.6508 147.232 40.7346 147.232 39.4919C147.232 38.3065 146.99 37.42 146.504 36.8302C146.016 36.2403 145.437 35.9471 144.762 35.9471C144.094 35.9471 143.502 36.261 142.988 36.8869C142.472 37.5157 142.216 38.4262 142.216 39.6242H142.216ZM151.757 44.229V31.3664H153.333V44.229H151.757ZM163.161 41.2105L164.791 41.4258C164.537 42.3753 164.063 43.1151 163.37 43.6385C162.677 44.1625 161.793 44.4259 160.715 44.4259C159.359 44.4259 158.285 44.0068 157.49 43.1684C156.696 42.3329 156.299 41.1561 156.299 39.6442C156.299 38.0809 156.699 36.8657 157.502 36.0032C158.306 35.138 159.347 34.7073 160.628 34.7073C161.868 34.7073 162.88 35.1294 163.666 35.9769C164.452 36.8244 164.846 38.0161 164.846 39.552C164.846 39.6454 164.843 39.7857 164.836 39.9712H157.911C157.971 40.9923 158.258 41.7768 158.777 42.3191C159.294 42.8609 159.942 43.1334 160.715 43.1334C161.292 43.1334 161.785 42.9805 162.191 42.6747C162.6 42.3695 162.922 41.8816 163.161 41.2105ZM158.001 38.6776H163.18C163.11 37.893 162.91 37.3061 162.585 36.9144C162.086 36.3068 161.435 36.001 160.638 36.001C159.915 36.001 159.309 36.2432 158.816 36.7288C158.327 37.2139 158.055 37.8632 158.001 38.6781V38.6776Z" fill="#0C7BA7"/>
<path fill-rule="evenodd" clip-rule="evenodd" d="M125.917 26.603V4.49596H118.04V0H139.144V4.49596H131.304V26.603H125.917ZM151.5 20.5098L156.591 21.3643C155.941 23.2288 154.906 24.6462 153.5 25.6248C152.089 26.5972 150.324 27.0863 148.212 27.0863C144.862 27.0863 142.378 25.9908 140.774 23.7981C139.505 22.0394 138.867 19.8221 138.867 17.1415C138.867 13.946 139.703 11.4377 141.369 9.62986C143.035 7.81509 145.146 6.91086 147.697 6.91086C150.558 6.91086 152.819 7.85805 154.478 9.75356C156.132 11.6485 156.924 14.5525 156.85 18.4666H144.106C144.143 19.9773 144.552 21.1541 145.338 21.9959C146.119 22.8383 147.097 23.2592 148.261 23.2592C149.06 23.2592 149.729 23.0421 150.267 22.6092C150.813 22.1757 151.222 21.4753 151.5 20.5098H151.5ZM151.798 15.345C151.76 13.8653 151.382 12.7383 150.658 11.9703C149.933 11.1961 149.054 10.8124 148.013 10.8124C146.905 10.8124 145.989 11.2213 145.264 12.0322C144.54 12.8436 144.187 13.9517 144.2 15.345H151.798H151.798ZM161.348 26.603V0H166.439V14.1126L172.402 7.31918H178.681L172.105 14.3663L179.165 26.603H173.666L168.799 17.9025L166.439 20.4291V26.603H161.349H161.348Z" fill="#0C7BA7"/>
<path fill-rule="evenodd" clip-rule="evenodd" d="M0 26.603V0H8.06937L12.8373 18.1442L17.5498 0H25.6374V26.603H20.6587L20.6398 5.65961L15.3948 26.603H10.218L4.9982 5.65961L4.97929 26.603H0.000587201H0ZM35.2936 13.2645L30.686 12.4468C31.2066 10.5639 32.1039 9.17059 33.3735 8.26636C34.6437 7.36213 36.5323 6.91029 39.0337 6.91029C41.3066 6.91029 43.0034 7.17658 44.1178 7.71546C45.2259 8.25433 46.0122 8.9358 46.4646 9.76501C46.9164 10.5948 47.146 12.1123 47.146 14.3291L47.0716 20.2739C47.0716 21.9644 47.1523 23.2157 47.3132 24.0208C47.4741 24.826 47.7776 25.6867 48.2238 26.603H43.1706C43.0406 26.2685 42.8734 25.7732 42.6816 25.1169C42.6008 24.8134 42.5395 24.6152 42.5017 24.5219C41.6353 25.3769 40.7064 26.0143 39.7146 26.442C38.7239 26.8692 37.6708 27.0857 36.5506 27.0857C34.5755 27.0857 33.0145 26.5468 31.8749 25.4697C30.7353 24.3988 30.166 23.0358 30.166 21.3889C30.166 20.3048 30.426 19.333 30.946 18.4786C31.466 17.6299 32.191 16.9737 33.1319 16.5218C34.067 16.07 35.4168 15.6737 37.1823 15.3324C39.56 14.8869 41.2138 14.466 42.1301 14.0817V13.5675C42.1301 12.5768 41.8884 11.8707 41.4051 11.4441C40.916 11.0231 39.9998 10.8124 38.6557 10.8124C37.7458 10.8124 37.0397 10.9917 36.5317 11.357C36.0175 11.7166 35.6092 12.354 35.2931 13.2645H35.2936ZM42.1301 17.3883C41.4801 17.6053 40.4453 17.8653 39.0274 18.1688C37.6152 18.4723 36.6869 18.769 36.2534 19.0541C35.5909 19.5312 35.2564 20.1256 35.2564 20.8506C35.2564 21.5687 35.5227 22.1814 36.0553 22.702C36.5879 23.222 37.2625 23.4825 38.0865 23.4825C39.0028 23.4825 39.8818 23.179 40.7185 22.5777C41.3312 22.1133 41.7401 21.5561 41.9319 20.8872C42.0619 20.4543 42.1301 19.6239 42.1301 18.4042V17.3883ZM57.5518 26.603H52.4614V7.31918H57.1802V10.0565C57.991 8.76229 58.7223 7.91417 59.3723 7.51159C60.0223 7.10843 60.7599 6.91029 61.5834 6.91029C62.7476 6.91029 63.8683 7.2327 64.946 7.87007L63.3672 12.3162C62.5065 11.759 61.7076 11.4801 60.9706 11.4801C60.2525 11.4801 59.6455 11.6783 59.1495 12.0688C58.6542 12.4651 58.2642 13.1712 57.979 14.1991C57.6944 15.227 57.5518 17.3825 57.5518 20.6582V26.603ZM72.961 26.603L65.1888 7.31918H70.5392L74.1681 17.1592L75.2207 20.4474C75.4996 19.6113 75.6788 19.0604 75.7475 18.7941C75.9205 18.249 76.1003 17.7044 76.2984 17.1592L79.9766 7.31918H85.2153L77.5554 26.603H72.9604H72.961ZM99.9877 20.5098L105.078 21.3643C104.428 23.2288 103.393 24.6462 101.987 25.6248C100.576 26.5972 98.8109 27.0863 96.6989 27.0863C93.3494 27.0863 90.8658 25.9908 89.2618 23.7981C87.9922 22.0394 87.3542 19.8221 87.3542 17.1415C87.3542 13.946 88.1909 11.4377 89.8562 9.62986C91.522 7.81509 93.6334 6.91086 96.1852 6.91086C99.0462 6.91086 101.307 7.85805 102.966 9.75356C104.619 11.6485 105.412 14.5525 105.338 18.4666H92.5941C92.6313 19.9773 93.0402 21.1541 93.8264 21.9959C94.607 22.8383 95.5851 23.2592 96.7493 23.2592C97.5476 23.2592 98.217 23.0421 98.7559 22.6092C99.3011 22.1757 99.7094 21.4753 99.9883 20.5098H99.9877ZM100.285 15.345C100.248 13.8653 99.8697 12.7383 99.1453 11.9703C98.4203 11.1961 97.5413 10.8124 96.5008 10.8124C95.3927 10.8124 94.4764 11.2213 93.7514 12.0322C93.027 12.8436 92.6742 13.9517 92.6868 15.345H100.285ZM110.022 26.603V0H115.112V26.603H110.022Z" fill="#E26063"/>
</svg>
