<svg width="102" height="18" viewBox="0 0 102 18" fill="none" xmlns="http://www.w3.org/2000/svg">
<g clip-path="url(#clip0)">
<path d="M17.9955 18V17.9993H18V11.3978C18 8.16829 17.3048 5.68054 13.5293 5.68054C11.7143 5.68054 10.4963 6.67654 9.99902 7.62079H9.94652V5.98204H6.36676V17.9993H10.0943V12.0488C10.0943 10.482 10.3913 8.96704 12.3315 8.96704C14.2433 8.96704 14.2718 10.755 14.2718 12.1493V18H17.9955Z" fill="#0C7BA7"/>
<path d="M0.296997 5.98267H4.029V17.9999H0.296997V5.98267Z" fill="#0C7BA7"/>
<path d="M2.1615 0C0.96825 0 0 0.96825 0 2.1615C0 3.35475 0.96825 4.34325 2.1615 4.34325C3.35475 4.34325 4.323 3.35475 4.323 2.1615C4.32225 0.96825 3.354 0 2.1615 0V0Z" fill="#0C7BA7"/>
</g>
<g clip-path="url(#clip1)">
<path d="M55.4993 0.00374516L53.1651 0C50.5427 0 48.848 1.73869 48.848 4.42978V6.4722H46.5011C46.2983 6.4722 46.1341 6.63661 46.1341 6.83942V9.79866C46.1341 10.0015 46.2985 10.1657 46.5011 10.1657H48.848V17.6328C48.848 17.8356 49.0123 17.9998 49.2151 17.9998H52.2771C52.4799 17.9998 52.6441 17.8354 52.6441 17.6328V10.1657H55.3882C55.591 10.1657 55.7552 10.0015 55.7552 9.79866L55.7564 6.83942C55.7564 6.74204 55.7176 6.64879 55.6489 6.57988C55.5801 6.51096 55.4865 6.4722 55.3891 6.4722H52.6441V4.74081C52.6441 3.90864 52.8424 3.48618 53.9265 3.48618L55.4989 3.48562C55.7015 3.48562 55.8657 3.32121 55.8657 3.1186V0.370771C55.8657 0.168345 55.7017 0.00411968 55.4993 0.00374516Z" fill="#0C7BA7"/>
</g>
<path d="M86.3112 0.000732422H99.6899C100.961 0.000732422 102 1.04016 102 2.3112V15.6899C102 16.9606 100.961 17.9993 99.6899 17.9993H86.3112C85.0402 17.9993 84 16.9605 84 15.6899V2.3112C84 1.04016 85.0402 0.000732422 86.3112 0.000732422ZM97.1128 1.99975C96.6665 1.99975 96.3024 2.3652 96.3024 2.81126V4.7501C96.3024 5.1963 96.6664 5.56094 97.1128 5.56094H99.1469C99.5925 5.56094 99.9573 5.19633 99.9573 4.7501V2.81123C99.9573 2.3652 99.5925 1.99972 99.1469 1.99972C99.1469 1.99975 97.1128 1.99975 97.1128 1.99975ZM99.9651 7.61206H98.3813C98.5315 8.10256 98.6129 8.61981 98.6129 9.1576C98.6129 12.1505 96.1069 14.578 93.0169 14.578C89.9277 14.578 87.4217 12.1505 87.4217 9.1576C87.4217 8.61981 87.5039 8.10256 87.6533 7.61206H86.001V15.216C86.001 15.6098 86.3225 15.9301 86.716 15.9301H99.2504C99.6442 15.9301 99.9651 15.6098 99.9651 15.216V7.61206ZM93.017 5.45867C91.0214 5.45867 89.4026 7.02636 89.4026 8.96196C89.4026 10.8956 91.0214 12.4645 93.017 12.4645C95.0136 12.4645 96.6325 10.8956 96.6325 8.96196C96.6325 7.02629 95.0136 5.45867 93.017 5.45867Z" fill="#0C7BA7"/>
<defs>
<clipPath id="clip0">
<rect width="18" height="18" fill="white"/>
</clipPath>
<clipPath id="clip1">
<rect width="18" height="17.9998" fill="white" transform="translate(42)"/>
</clipPath>
</defs>
</svg>
