<svg width="45" height="40" viewBox="0 0 45 40" fill="none" xmlns="http://www.w3.org/2000/svg">
<path d="M27.6465 16.6581C27.6465 16.2716 27.7913 15.9009 28.0489 15.6276C28.3065 15.3542 28.656 15.2007 29.0203 15.2007H35.4313C35.7956 15.2007 36.1451 15.3542 36.4027 15.6276C36.6603 15.9009 36.8051 16.2716 36.8051 16.6581C36.8051 17.0447 36.6603 17.4154 36.4027 17.6887C36.1451 17.962 35.7956 18.1156 35.4313 18.1156H29.0203C28.656 18.1156 28.3065 17.962 28.0489 17.6887C27.7913 17.4154 27.6465 17.0447 27.6465 16.6581Z" fill="#0C7BA7"/>
<path d="M29.0203 22.0021C28.656 22.0021 28.3065 22.1557 28.0489 22.429C27.7913 22.7023 27.6465 23.0731 27.6465 23.4596C27.6465 23.8461 27.7913 24.2168 28.0489 24.4902C28.3065 24.7635 28.656 24.917 29.0203 24.917H35.4313C35.7956 24.917 36.1451 24.7635 36.4027 24.4902C36.6603 24.2168 36.8051 23.8461 36.8051 23.4596C36.8051 23.0731 36.6603 22.7023 36.4027 22.429C36.1451 22.1557 35.7956 22.0021 35.4313 22.0021H29.0203Z" fill="#0C7BA7"/>
<path d="M23.9831 16.1723C23.9831 16.9454 23.6936 17.6868 23.1783 18.2335C22.6631 18.7801 21.9642 19.0872 21.2355 19.0872C20.5068 19.0872 19.808 18.7801 19.2927 18.2335C18.7774 17.6868 18.488 16.9454 18.488 16.1723C18.488 15.3992 18.7774 14.6578 19.2927 14.1111C19.808 13.5645 20.5068 13.2574 21.2355 13.2574C21.9642 13.2574 22.6631 13.5645 23.1783 14.1111C23.6936 14.6578 23.9831 15.3992 23.9831 16.1723Z" fill="#0C7BA7"/>
<path d="M9.3295 21.0305C8.84371 21.0305 8.37781 21.2353 8.0343 21.5997C7.69079 21.9641 7.4978 22.4584 7.4978 22.9738V24.9171C7.4978 24.9171 7.4978 28.8036 12.535 28.8036C17.5722 28.8036 17.5722 24.9171 17.5722 24.9171V22.9738C17.5722 22.4584 17.3792 21.9641 17.0357 21.5997C16.6922 21.2353 16.2263 21.0305 15.7405 21.0305H9.3295Z" fill="#0C7BA7"/>
<path d="M15.7404 15.6865C15.7404 16.5884 15.4027 17.4534 14.8016 18.0912C14.2004 18.7289 13.3851 19.0872 12.5349 19.0872C11.6848 19.0872 10.8695 18.7289 10.2683 18.0912C9.66719 17.4534 9.32947 16.5884 9.32947 15.6865C9.32947 14.7846 9.66719 13.9196 10.2683 13.2818C10.8695 12.6441 11.6848 12.2858 12.5349 12.2858C13.3851 12.2858 14.2004 12.6441 14.8016 13.2818C15.4027 13.9196 15.7404 14.7846 15.7404 15.6865Z" fill="#0C7BA7"/>
<path d="M21.2356 26.8604H19.0101C19.204 26.3528 19.3304 25.8191 19.3856 25.2746C19.3929 25.1852 19.3984 25.1095 19.4003 25.0492V25.024H19.4039V22.9738C19.4039 22.2664 19.2244 21.6018 18.913 21.0305H23.0673C23.5531 21.0305 24.019 21.2353 24.3625 21.5997C24.706 21.9641 24.899 22.4584 24.899 22.9738C24.899 24.0046 24.5131 24.9931 23.826 25.722C23.139 26.4509 22.2072 26.8604 21.2356 26.8604Z" fill="#0C7BA7"/>
<path d="M0.178345 7.91339C0.178345 5.98068 0.902029 4.12713 2.19019 2.7605C3.47836 1.39386 5.22549 0.626099 7.04723 0.626099H37.263C39.0847 0.626099 40.8319 1.39386 42.12 2.7605C43.4082 4.12713 44.1319 5.98068 44.1319 7.91339V32.2044C44.1319 34.1371 43.4082 35.9906 42.12 37.3573C40.8319 38.7239 39.0847 39.4916 37.263 39.4916H7.04906C5.22732 39.4916 3.48019 38.7239 2.19203 37.3573C0.903861 35.9906 0.180177 34.1371 0.180177 32.2044V7.91339H0.178345ZM7.04723 3.54101C5.95418 3.54101 4.90591 4.00167 4.13301 4.82165C3.36011 5.64163 2.9259 6.75376 2.9259 7.91339V32.2044C2.9259 33.364 3.36011 34.4761 4.13301 35.2961C4.90591 36.1161 5.95418 36.5767 7.04723 36.5767H37.263C38.356 36.5767 39.4043 36.1161 40.1772 35.2961C40.9501 34.4761 41.3843 33.364 41.3843 32.2044V7.91339C41.3843 6.75376 40.9501 5.64163 40.1772 4.82165C39.4043 4.00167 38.356 3.54101 37.263 3.54101H7.04906H7.04723Z" fill="#0C7BA7"/>
</svg>
