<svg width="97" height="89" viewBox="0 0 97 89" fill="none" xmlns="http://www.w3.org/2000/svg">
<path fill-rule="evenodd" clip-rule="evenodd" d="M18.6478 88.1562C18.6478 88.1562 -8.31792 39.2296 8.37513 30.6222C25.0682 22.0147 70.439 -32.3481 92.6964 30.6222C114.954 93.5925 18.6478 88.1562 18.6478 88.1562Z" fill="url(#paint0_linear)"/>
<path d="M53.6465 41.6581C53.6465 41.2716 53.7913 40.9009 54.0489 40.6276C54.3065 40.3542 54.656 40.2007 55.0203 40.2007H61.4313C61.7956 40.2007 62.1451 40.3542 62.4027 40.6276C62.6603 40.9009 62.8051 41.2716 62.8051 41.6581C62.8051 42.0447 62.6603 42.4154 62.4027 42.6887C62.1451 42.962 61.7956 43.1156 61.4313 43.1156H55.0203C54.656 43.1156 54.3065 42.962 54.0489 42.6887C53.7913 42.4154 53.6465 42.0447 53.6465 41.6581Z" fill="#0C7BA7"/>
<path d="M55.0203 47.0021C54.656 47.0021 54.3065 47.1557 54.0489 47.429C53.7913 47.7023 53.6465 48.0731 53.6465 48.4596C53.6465 48.8461 53.7913 49.2168 54.0489 49.4902C54.3065 49.7635 54.656 49.917 55.0203 49.917H61.4313C61.7956 49.917 62.1451 49.7635 62.4027 49.4902C62.6603 49.2168 62.8051 48.8461 62.8051 48.4596C62.8051 48.0731 62.6603 47.7023 62.4027 47.429C62.1451 47.1557 61.7956 47.0021 61.4313 47.0021H55.0203Z" fill="#0C7BA7"/>
<path d="M49.9831 41.1723C49.9831 41.9454 49.6936 42.6868 49.1783 43.2335C48.6631 43.7801 47.9642 44.0872 47.2355 44.0872C46.5068 44.0872 45.808 43.7801 45.2927 43.2335C44.7774 42.6868 44.488 41.9454 44.488 41.1723C44.488 40.3992 44.7774 39.6578 45.2927 39.1111C45.808 38.5645 46.5068 38.2574 47.2355 38.2574C47.9642 38.2574 48.6631 38.5645 49.1783 39.1111C49.6936 39.6578 49.9831 40.3992 49.9831 41.1723Z" fill="#0C7BA7"/>
<path d="M35.3295 46.0305C34.8437 46.0305 34.3778 46.2353 34.0343 46.5997C33.6908 46.9641 33.4978 47.4584 33.4978 47.9738V49.9171C33.4978 49.9171 33.4978 53.8036 38.535 53.8036C43.5722 53.8036 43.5722 49.9171 43.5722 49.9171V47.9738C43.5722 47.4584 43.3792 46.9641 43.0357 46.5997C42.6922 46.2353 42.2263 46.0305 41.7405 46.0305H35.3295Z" fill="#0C7BA7"/>
<path d="M41.7404 40.6865C41.7404 41.5884 41.4027 42.4534 40.8016 43.0912C40.2004 43.7289 39.3851 44.0872 38.5349 44.0872C37.6848 44.0872 36.8695 43.7289 36.2683 43.0912C35.6672 42.4534 35.3295 41.5884 35.3295 40.6865C35.3295 39.7846 35.6672 38.9196 36.2683 38.2818C36.8695 37.6441 37.6848 37.2858 38.5349 37.2858C39.3851 37.2858 40.2004 37.6441 40.8016 38.2818C41.4027 38.9196 41.7404 39.7846 41.7404 40.6865Z" fill="#0C7BA7"/>
<path d="M47.2356 51.8604H45.0101C45.204 51.3528 45.3304 50.8191 45.3856 50.2746C45.3929 50.1852 45.3984 50.1095 45.4003 50.0492V50.024H45.4039V47.9738C45.4039 47.2664 45.2244 46.6018 44.913 46.0305H49.0673C49.5531 46.0305 50.019 46.2353 50.3625 46.5997C50.706 46.9641 50.899 47.4584 50.899 47.9738C50.899 49.0046 50.5131 49.9931 49.826 50.722C49.139 51.4509 48.2072 51.8604 47.2356 51.8604Z" fill="#0C7BA7"/>
<path d="M26.1783 32.9134C26.1783 30.9807 26.902 29.1271 28.1902 27.7605C29.4784 26.3939 31.2255 25.6261 33.0472 25.6261H63.263C65.0847 25.6261 66.8319 26.3939 68.12 27.7605C69.4082 29.1271 70.1319 30.9807 70.1319 32.9134V57.2044C70.1319 59.1371 69.4082 60.9906 68.12 62.3573C66.8319 63.7239 65.0847 64.4916 63.263 64.4916H33.0491C31.2273 64.4916 29.4802 63.7239 28.192 62.3573C26.9039 60.9906 26.1802 59.1371 26.1802 57.2044V32.9134H26.1783ZM33.0472 28.541C31.9542 28.541 30.9059 29.0017 30.133 29.8217C29.3601 30.6416 28.9259 31.7538 28.9259 32.9134V57.2044C28.9259 58.364 29.3601 59.4761 30.133 60.2961C30.9059 61.1161 31.9542 61.5767 33.0472 61.5767H63.263C64.356 61.5767 65.4043 61.1161 66.1772 60.2961C66.9501 59.4761 67.3843 58.364 67.3843 57.2044V32.9134C67.3843 31.7538 66.9501 30.6416 66.1772 29.8217C65.4043 29.0017 64.356 28.541 63.263 28.541H33.0491H33.0472Z" fill="#0C7BA7"/>
<defs>
<linearGradient id="paint0_linear" x1="60.1236" y1="55.3727" x2="6.29663" y2="-7.86975" gradientUnits="userSpaceOnUse">
<stop stop-color="#F2F9FF"/>
<stop offset="1" stop-color="white"/>
</linearGradient>
</defs>
</svg>
