<svg width="16" height="16" viewBox="0 0 16 16" fill="none" xmlns="http://www.w3.org/2000/svg">
<g clip-path="url(#clip0)">
<path d="M14.9016 1.09838C13.4371 -0.366121 11.0627 -0.366121 9.59825 1.09835L6.46406 4.23253C4.94922 5.74744 5.08947 8.16119 6.46406 9.53584C6.69425 9.76603 6.94893 9.95372 7.21787 10.1079L7.7899 9.53584C8.16509 9.16059 8.03303 8.72194 8.02628 8.40541C7.94393 8.34703 7.86384 8.28394 7.7899 8.21C7.0845 7.50466 7.05278 6.29547 7.7899 5.55835C7.89937 5.44888 10.8576 2.49066 10.924 2.42422C11.6552 1.693 12.8445 1.693 13.5757 2.42422C14.3069 3.15544 14.3069 4.34466 13.5757 5.07588L11.504 7.14753C11.5639 7.479 11.9235 8.26419 11.7385 9.55944C11.7476 9.55056 11.7584 9.54484 11.7674 9.53588L14.9016 6.40169C16.366 4.93719 16.366 2.56288 14.9016 1.09838Z" fill="#707A83"/>
<path d="M9.77869 6.22126C9.54853 5.99107 9.29381 5.80339 9.02494 5.64923L8.4529 6.22126C8.07765 6.59645 8.20971 7.03511 8.21646 7.35164C8.29887 7.41001 8.37897 7.47311 8.4529 7.54704C9.15831 8.25245 9.19003 9.46158 8.4529 10.1987C8.34318 10.3084 5.13993 13.5117 5.07584 13.5758C4.34462 14.307 3.1554 14.307 2.42418 13.5758C1.69296 12.8445 1.69296 11.6553 2.42418 10.9241L4.73877 8.60951C4.67887 8.27804 4.3193 7.49286 4.50427 6.19761C4.49524 6.20648 4.48437 6.21226 4.47537 6.22123L1.09833 9.59832C-0.36611 11.0628 -0.36611 13.4371 1.09833 14.9016C2.56283 16.3661 4.93712 16.3661 6.40162 14.9016L9.77869 11.5246C11.2654 10.0378 11.1842 7.62673 9.77869 6.22126Z" fill="#707A83"/>
</g>
<defs>
<clipPath id="clip0">
<rect width="16" height="16" fill="white"/>
</clipPath>
</defs>
</svg>
